<?xml version="1.0" encoding="iso-8859-1"?>
<!-- Generator: Adobe Illustrator 17.1.0, SVG Export Plug-In . SVG Version: 6.00 Build 0)  -->
<!DOCTYPE svg PUBLIC "-//W3C//DTD SVG 1.1//EN" "http://www.w3.org/Graphics/SVG/1.1/DTD/svg11.dtd">
<svg version="1.1" id="Capa_1" xmlns="http://www.w3.org/2000/svg" xmlns:xlink="http://www.w3.org/1999/xlink" x="0px" y="0px"
	 viewBox="0 0 420 420" style="enable-background:new 0 0 420 420;" xml:space="preserve">
<path d="M419.975,28.747c0-7.679-2.99-14.898-8.42-20.327C406.125,2.99,398.906,0,391.227,0c-7.679,0-14.898,2.99-20.329,8.422
	L303.13,76.221c-8.33-5.584-18.123-8.584-28.379-8.584c-13.647,0-26.475,5.313-36.122,14.959L8.351,312.874
	c-5.902,5.902-14.063,19.258-2.41,42.391c7.078,14.049,18.939,26.951,25.379,33.392C43.024,400.36,65.764,419.997,86.553,420
	c0.002,0,0.003,0,0.005,0c7.959,0,15.063-2.897,20.542-8.376l230.278-230.278c17.496-17.496,19.619-44.629,6.378-64.472
	l67.798-67.798C416.985,43.646,419.975,36.427,419.975,28.747z M323.236,167.203L92.958,397.481c-1.741,1.742-3.715,2.519-6.4,2.519
	h-0.002c-9.483-0.002-25.614-10.005-41.094-25.486c-16.97-16.969-31.396-39.071-22.969-47.497L252.772,96.738
	c5.869-5.87,13.675-9.102,21.979-9.102c8.31,0,16.122,3.235,21.997,9.11l26.495,26.495
	C335.358,135.364,335.355,155.085,323.236,167.203z M397.413,34.933l-67.097,67.097L317.96,89.674l67.081-67.111
	c1.652-1.652,3.849-2.563,6.186-2.563c2.336,0,4.533,0.91,6.186,2.563c1.652,1.652,2.562,3.849,2.562,6.185
	C399.975,31.084,399.065,33.28,397.413,34.933z"/>
<g>
</g>
<g>
</g>
<g>
</g>
<g>
</g>
<g>
</g>
<g>
</g>
<g>
</g>
<g>
</g>
<g>
</g>
<g>
</g>
<g>
</g>
<g>
</g>
<g>
</g>
<g>
</g>
<g>
</g>
</svg>
